<svg width="151" height="51" viewBox="0 0 151 51" fill="none" xmlns="http://www.w3.org/2000/svg">
<g transform="translate(0, 27.0) scale(1, 1.7157)">
<path d="M5.904 5.164L0.449 5.164L0.449 4.939L0.718 4.849Q1.549 4.625 1.549 3.772L1.549 3.772L1.549-8.441Q1.549-8.935 1.381-9.182Q1.212-9.429 0.763-9.519L0.763-9.519L0.449-9.586L0.449-9.811L4.266-11.113L4.490-10.888L4.692-10.192Q5.433-10.641 6.342-10.888Q7.251-11.135 8.217-11.135L8.217-11.135Q10.147-11.135 11.281-9.665Q12.415-8.194 12.415-5.455L12.415-5.455Q12.415-2.761 11.169-1.212Q9.923 0.337 7.655 0.337L7.655 0.337Q5.882 0.337 4.670-0.180L4.670-0.180L4.670 3.704Q4.670 4.602 5.478 4.827L5.478 4.827L5.904 4.939L5.904 5.164ZM6.578-0.314L6.578-0.314Q7.700-0.314 8.363-1.482Q9.025-2.649 9.025-5.366L9.025-5.366Q9.025-8.082 8.396-9.171Q7.768-10.260 6.578-10.260L6.578-10.260Q5.747-10.260 4.737-9.721L4.737-9.721L4.737-0.674Q5.590-0.314 6.578-0.314Z" fill="white"/>
<path d="M19.240 0L13.425 0L13.425-0.225L13.762-0.314Q14.211-0.449 14.379-0.718Q14.548-0.988 14.548-1.414L14.548-1.414L14.548-8.441Q14.548-8.935 14.379-9.171Q14.211-9.407 13.762-9.496L13.762-9.496L13.425-9.586L13.425-9.811L17.287-11.113L17.511-10.888L17.713-8.958L17.713-8.778Q18.027-9.407 18.532-9.934Q19.038-10.462 19.655-10.798Q20.272-11.135 20.879-11.135L20.879-11.135Q21.732-11.135 22.181-10.664Q22.630-10.192 22.630-9.474L22.630-9.474Q22.630-8.711 22.192-8.295Q21.754-7.880 21.148-7.880L21.148-7.880Q20.205-7.880 19.487-8.823L19.487-8.823L19.442-8.868Q19.217-9.182 18.925-9.216Q18.634-9.249 18.387-8.935L18.387-8.935Q18.162-8.733 18.016-8.452Q17.870-8.172 17.736-7.813L17.736-7.813L17.736-1.549Q17.736-0.651 18.521-0.427L18.521-0.427L19.240-0.225L19.240 0Z" fill="white"/>
<path d="M29.005 0.337L29.005 0.337Q27.299 0.337 26.042-0.370Q24.785-1.078 24.100-2.380Q23.415-3.682 23.415-5.433L23.415-5.433Q23.415-7.184 24.145-8.464Q24.875-9.743 26.143-10.439Q27.411-11.135 29.005-11.135L29.005-11.135Q30.599-11.135 31.857-10.450Q33.114-9.766 33.843-8.486Q34.573-7.206 34.573-5.433L34.573-5.433Q34.573-3.659 33.888-2.368Q33.204-1.078 31.958-0.370Q30.712 0.337 29.005 0.337ZM29.005-0.112L29.005-0.112Q29.791-0.112 30.263-0.561Q30.734-1.010 30.947-2.155Q31.161-3.300 31.161-5.388L31.161-5.388Q31.161-7.498 30.947-8.643Q30.734-9.788 30.263-10.237Q29.791-10.686 29.005-10.686L29.005-10.686Q28.220-10.686 27.737-10.237Q27.254-9.788 27.041-8.643Q26.828-7.498 26.828-5.388L26.828-5.388Q26.828-3.300 27.041-2.155Q27.254-1.010 27.737-0.561Q28.220-0.112 29.005-0.112Z" fill="white"/>
<path d="M40.320 0.337L40.320 0.337Q38.996 0.337 37.941-0.258Q36.885-0.853 36.268-2.099Q35.651-3.345 35.651-5.298L35.651-5.298Q35.651-7.274 36.347-8.565Q37.043-9.856 38.187-10.495Q39.332-11.135 40.679-11.135L40.679-11.135Q41.465-11.135 42.184-10.978Q42.902-10.821 43.463-10.507L43.463-10.507L43.463-13.425Q43.463-13.897 43.317-14.121Q43.171-14.346 42.700-14.435L42.700-14.435L42.273-14.525L42.273-14.750L46.359-15.737L46.606-15.535L46.516-12.392L46.516-1.414Q46.516-0.965 46.674-0.685Q46.831-0.404 47.257-0.292L47.257-0.292L47.459-0.225L47.459 0L43.620 0.247L43.418-0.561Q42.812-0.157 42.038 0.090Q41.263 0.337 40.320 0.337ZM41.622-0.494L41.622-0.494Q42.565-0.494 43.351-1.055L43.351-1.055L43.351-9.968Q42.520-10.507 41.645-10.507L41.645-10.507Q40.567-10.507 39.804-9.261Q39.041-8.015 39.041-5.343L39.041-5.343Q39.041-2.672 39.759-1.583Q40.477-0.494 41.622-0.494Z" fill="white"/>
<path d="M52.511 0.337L52.511 0.337Q51.635 0.337 50.905 0Q50.176-0.337 49.760-1.089Q49.345-1.841 49.368-3.076L49.368-3.076L49.435-8.845Q49.435-9.362 49.255-9.586Q49.076-9.811 48.694-9.900L48.694-9.900L48.425-9.990L48.425-10.215L52.443-11.001L52.668-10.776L52.555-7.588L52.555-2.178Q52.555-1.459 52.971-1.123Q53.386-0.786 54.015-0.786L54.015-0.786Q54.643-0.786 55.137-0.965Q55.631-1.145 56.125-1.504L56.125-1.504L56.215-8.823Q56.215-9.339 56.058-9.552Q55.901-9.766 55.474-9.856L55.474-9.856L55.249-9.923L55.249-10.147L59.178-11.001L59.403-10.776L59.335-7.588L59.335-1.504Q59.335-1.010 59.470-0.741Q59.605-0.471 60.054-0.292L60.054-0.292L60.278-0.225L60.278 0L56.350 0.225L56.147-1.100Q55.407-0.494 54.542-0.079Q53.678 0.337 52.511 0.337Z" fill="white"/>
<path d="M66.744 0.337L66.744 0.337Q65.217 0.337 63.971-0.326Q62.725-0.988 61.996-2.256Q61.266-3.525 61.266-5.366L61.266-5.366Q61.266-7.184 62.063-8.475Q62.860-9.766 64.196-10.450Q65.532-11.135 67.126-11.135L67.126-11.135Q68.428-11.135 69.326-10.709Q70.224-10.282 70.695-9.597Q71.167-8.913 71.167-8.172L71.167-8.172Q71.167-7.543 70.785-7.195Q70.403-6.847 69.797-6.847L69.797-6.847Q69.146-6.847 68.742-7.319Q68.338-7.790 68.270-8.553L68.270-8.553Q68.248-9.047 68.293-9.395Q68.338-9.743 68.293-10.103L68.293-10.103Q68.203-10.484 68.012-10.608Q67.821-10.731 67.485-10.731L67.485-10.731Q66.115-10.731 65.363-9.541Q64.611-8.351 64.611-5.747L64.611-5.747Q64.611-3.480 65.453-2.279Q66.295-1.078 68.046-1.078L68.046-1.078Q69.101-1.078 69.752-1.459Q70.403-1.841 71.009-2.604L71.009-2.604L71.234-2.425Q70.673-1.100 69.505-0.382Q68.338 0.337 66.744 0.337Z" fill="white"/>
<path d="M77.902-11.135L77.902-11.135Q79.361-11.135 80.393-10.540Q81.426-9.945 81.976-8.924Q82.526-7.902 82.526-6.600L82.526-6.600Q82.526-6.353 82.504-6.095Q82.481-5.837 82.414-5.635L82.414-5.635L75.724-5.635Q75.746-3.210 76.588-2.144Q77.430-1.078 79.091-1.078L79.091-1.078Q80.214-1.078 80.910-1.437Q81.606-1.796 82.212-2.492L82.212-2.492L82.436-2.290Q81.740-1.055 80.584-0.359Q79.428 0.337 77.812 0.337L77.812 0.337Q76.218 0.337 74.983-0.348Q73.748-1.033 73.052-2.312Q72.356-3.592 72.356-5.366L72.356-5.366Q72.356-7.206 73.165-8.497Q73.973-9.788 75.241-10.462Q76.510-11.135 77.902-11.135ZM77.834-10.686L77.834-10.686Q77.183-10.686 76.723-10.293Q76.263-9.900 76.004-8.901Q75.746-7.902 75.724-6.084L75.724-6.084L79.563-6.084Q79.787-8.531 79.383-9.609Q78.979-10.686 77.834-10.686Z" fill="white"/>
</g>
<path d="M84.3744 41.891C81.6864 41.891 80.3424 40.003 81.0464 37.379L83.8304 27.427L81.1424 26.403L84.2144 24.515L84.7584 22.307L89.0464 20.835L88.0224 25.187H93.0464L92.6304 26.915H87.5744L85.0464 37.603C84.6944 39.011 85.1744 39.875 86.3584 39.875C87.9264 39.875 89.9104 38.179 91.3504 35.619C89.6544 39.459 87.0944 41.891 84.3744 41.891Z" fill="white"/>
<path d="M93.6932 41.507H89.8212L95.3252 18.595L93.1492 17.827L99.9652 15.427L95.3572 34.563H95.5492C97.7572 29.059 100.573 24.739 103.901 24.739C106.365 24.739 107.709 26.883 106.909 29.699L104.381 38.563C104.125 39.363 104.349 39.715 104.733 39.715C105.533 39.715 106.973 38.051 108.797 33.731C107.005 39.523 105.149 41.891 102.749 41.891C100.765 41.891 99.9012 40.515 100.573 38.179L103.133 29.187C103.549 27.651 103.037 26.531 101.853 26.531C98.9092 26.531 95.3892 34.883 93.6932 41.507Z" fill="white"/>
<path d="M116.315 21.667H111.995L112.923 17.379H117.243L116.315 21.667ZM110.747 41.891C108.827 41.891 107.931 40.643 108.539 38.371L111.163 28.163C111.387 27.203 111.259 26.947 110.875 26.947C110.107 26.947 108.603 28.803 107.067 31.971C108.539 27.427 110.843 24.739 113.243 24.739C114.715 24.739 115.643 25.763 115.131 27.811L112.379 38.531C112.187 39.331 112.315 39.715 112.731 39.715C113.563 39.715 114.971 38.051 116.827 33.731C115.003 39.523 113.147 41.891 110.747 41.891Z" fill="white"/>
<path d="M115.108 31.971C116.58 27.427 118.884 24.739 121.284 24.739C122.756 24.739 123.652 25.827 123.172 27.715L121.54 34.563H121.764C123.908 29.059 126.756 24.739 130.116 24.739C132.676 24.739 133.924 26.851 133.092 29.699L130.596 38.563C130.34 39.363 130.532 39.715 130.916 39.715C131.748 39.715 133.188 38.051 135.012 33.731C133.22 39.523 131.364 41.891 128.9 41.891C126.948 41.891 126.084 40.515 126.756 38.179L129.348 29.187C129.796 27.651 129.252 26.531 128.068 26.531C125.092 26.531 121.668 34.883 119.908 41.507H116.004L119.204 28.067C119.396 27.203 119.3 26.947 118.916 26.947C118.148 26.947 116.644 28.803 115.108 31.971Z" fill="white"/>
<path d="M136.094 50.659C131.678 50.659 128.734 49.219 128.734 47.075C128.734 44.899 131.262 43.523 135.166 42.371L135.23 42.083C134.59 41.603 134.174 41.027 134.174 40.419C134.174 38.915 136.542 37.955 140.03 36.899H139.87C136.414 36.867 134.494 34.819 134.494 32.131C134.494 28.291 138.014 24.739 142.43 24.739C144.318 24.739 145.278 25.187 146.814 25.187H150.782L150.334 26.915H147.102C147.582 27.715 147.806 28.675 147.806 29.635C147.806 32.899 145.438 35.523 142.43 36.515C140.734 37.059 137.63 37.891 137.63 39.075C137.63 40.867 146.11 42.403 146.11 45.475C146.11 48.099 141.022 50.659 136.094 50.659ZM140.094 36.387C142.654 36.419 144.51 31.427 144.51 28.451C144.51 26.627 143.806 25.251 142.334 25.251C139.582 25.251 137.758 30.115 137.758 33.059C137.758 34.947 138.526 36.387 140.094 36.387ZM137.47 49.795C139.838 49.795 142.654 48.867 142.654 46.947C142.654 45.155 138.366 44.067 135.87 42.531C133.662 43.363 132.254 44.739 132.254 46.339C132.254 48.419 134.558 49.795 137.47 49.795Z" fill="white"/>
</svg>
